<?xml version="1.0" encoding="utf-8"?>
<svg xmlns="http://www.w3.org/2000/svg" xmlns:xlink="http://www.w3.org/1999/xlink" style="margin: auto; background: rgba(255, 255, 255, 0); display: block; shape-rendering: auto;" width="210px" height="210px" viewBox="0 0 100 100" preserveAspectRatio="xMidYMid">
<g transform="rotate(0 50 50)">
  <rect x="47" y="7" rx="1.12" ry="1.12" width="6" height="28" fill="#f1c40f">
    <animate attributeName="opacity" values="1;0" keyTimes="0;1" dur="0.8474576271186439s" begin="-0.7768361581920903s" repeatCount="indefinite"></animate>
  </rect>
</g><g transform="rotate(30 50 50)">
  <rect x="47" y="7" rx="1.12" ry="1.12" width="6" height="28" fill="#f1c40f">
    <animate attributeName="opacity" values="1;0" keyTimes="0;1" dur="0.8474576271186439s" begin="-0.7062146892655367s" repeatCount="indefinite"></animate>
  </rect>
</g><g transform="rotate(60 50 50)">
  <rect x="47" y="7" rx="1.12" ry="1.12" width="6" height="28" fill="#f1c40f">
    <animate attributeName="opacity" values="1;0" keyTimes="0;1" dur="0.8474576271186439s" begin="-0.6355932203389829s" repeatCount="indefinite"></animate>
  </rect>
</g><g transform="rotate(90 50 50)">
  <rect x="47" y="7" rx="1.12" ry="1.12" width="6" height="28" fill="#f1c40f">
    <animate attributeName="opacity" values="1;0" keyTimes="0;1" dur="0.8474576271186439s" begin="-0.5649717514124293s" repeatCount="indefinite"></animate>
  </rect>
</g><g transform="rotate(120 50 50)">
  <rect x="47" y="7" rx="1.12" ry="1.12" width="6" height="28" fill="#f1c40f">
    <animate attributeName="opacity" values="1;0" keyTimes="0;1" dur="0.8474576271186439s" begin="-0.49435028248587565s" repeatCount="indefinite"></animate>
  </rect>
</g><g transform="rotate(150 50 50)">
  <rect x="47" y="7" rx="1.12" ry="1.12" width="6" height="28" fill="#f1c40f">
    <animate attributeName="opacity" values="1;0" keyTimes="0;1" dur="0.8474576271186439s" begin="-0.42372881355932196s" repeatCount="indefinite"></animate>
  </rect>
</g><g transform="rotate(180 50 50)">
  <rect x="47" y="7" rx="1.12" ry="1.12" width="6" height="28" fill="#f1c40f">
    <animate attributeName="opacity" values="1;0" keyTimes="0;1" dur="0.8474576271186439s" begin="-0.3531073446327683s" repeatCount="indefinite"></animate>
  </rect>
</g><g transform="rotate(210 50 50)">
  <rect x="47" y="7" rx="1.12" ry="1.12" width="6" height="28" fill="#f1c40f">
    <animate attributeName="opacity" values="1;0" keyTimes="0;1" dur="0.8474576271186439s" begin="-0.28248587570621464s" repeatCount="indefinite"></animate>
  </rect>
</g><g transform="rotate(240 50 50)">
  <rect x="47" y="7" rx="1.12" ry="1.12" width="6" height="28" fill="#f1c40f">
    <animate attributeName="opacity" values="1;0" keyTimes="0;1" dur="0.8474576271186439s" begin="-0.21186440677966098s" repeatCount="indefinite"></animate>
  </rect>
</g><g transform="rotate(270 50 50)">
  <rect x="47" y="7" rx="1.12" ry="1.12" width="6" height="28" fill="#f1c40f">
    <animate attributeName="opacity" values="1;0" keyTimes="0;1" dur="0.8474576271186439s" begin="-0.14124293785310732s" repeatCount="indefinite"></animate>
  </rect>
</g><g transform="rotate(300 50 50)">
  <rect x="47" y="7" rx="1.12" ry="1.12" width="6" height="28" fill="#f1c40f">
    <animate attributeName="opacity" values="1;0" keyTimes="0;1" dur="0.8474576271186439s" begin="-0.07062146892655366s" repeatCount="indefinite"></animate>
  </rect>
</g><g transform="rotate(330 50 50)">
  <rect x="47" y="7" rx="1.12" ry="1.12" width="6" height="28" fill="#f1c40f">
    <animate attributeName="opacity" values="1;0" keyTimes="0;1" dur="0.8474576271186439s" begin="0s" repeatCount="indefinite"></animate>
  </rect>
</g>
<!-- [ldio] generated by https://loading.io/ --></svg>